<svg width="36" height="36" viewBox="0 0 36 36" fill="none" xmlns="http://www.w3.org/2000/svg">
<path d="M18.0396 36H17.9604C8.05714 36 0 27.9429 0 18.0396V17.9604C0 8.05714 8.05714 0 17.9604 0H18.0396C27.9429 0 36 8.05714 36 17.9604V18.0396C36 27.9429 27.9429 36 18.0396 36ZM17.9604 1.21856C8.72857 1.21856 1.21856 8.72857 1.21856 17.9604V18.0396C1.21856 27.2714 8.72857 34.7814 17.9604 34.7814H18.0396C27.2714 34.7814 34.7814 27.2714 34.7814 18.0396V17.9604C34.7814 8.72857 27.2714 1.21856 18.0396 1.21856H17.9604Z" fill="#1877F2"/>
<path d="M20.4219 13.9632V17.7517H25.1085L24.3664 22.8551H20.4219V34.613C19.631 34.7227 18.8219 34.7799 18.0006 34.7799C17.0525 34.7799 16.1216 34.7044 15.2149 34.5582V22.8551H10.8927V17.7517H15.2149V13.1163C15.2149 10.2405 17.5461 7.9082 20.4231 7.9082V7.91063C20.4316 7.91063 20.4389 7.9082 20.4475 7.9082H25.1097V12.3218H22.0633C21.1579 12.3218 20.4231 13.0566 20.4231 13.962L20.4219 13.9632Z" fill="#1877F2"/>
</svg>
