<svg width="36" height="36" viewBox="0 0 36 36" fill="none" xmlns="http://www.w3.org/2000/svg">
<path d="M18.0396 36H17.9604C8.05714 36 0 27.9429 0 18.0396V17.9604C0 8.05714 8.05714 0 17.9604 0H18.0396C27.9429 0 36 8.05714 36 17.9604V18.0396C36 27.9429 27.9429 36 18.0396 36ZM17.9604 1.21856C8.72857 1.21856 1.21856 8.72857 1.21856 17.9604V18.0396C1.21856 27.2714 8.72857 34.7814 17.9604 34.7814H18.0396C27.2714 34.7814 34.7814 27.2714 34.7814 18.0396V17.9604C34.7814 8.72857 27.2714 1.21856 18.0396 1.21856H17.9604Z" fill="url(#paint0_linear_393_1422)"/>
<path d="M23.3818 7.68555H12.6194C9.64614 7.68555 7.22729 10.1044 7.22729 13.0777V22.9237C7.22729 25.897 9.64614 28.3158 12.6194 28.3158H23.3818C26.3551 28.3158 28.7739 25.897 28.7739 22.9237V13.0777C28.7739 10.1044 26.3551 7.68555 23.3818 7.68555ZM9.12947 13.0777C9.12947 11.1536 10.6953 9.58772 12.6194 9.58772H23.3818C25.3059 9.58772 26.8717 11.1536 26.8717 13.0777V22.9237C26.8717 24.8478 25.3059 26.4137 23.3818 26.4137H12.6194C10.6953 26.4137 9.12947 24.8478 9.12947 22.9237V13.0777Z" fill="url(#paint1_linear_393_1422)"/>
<path d="M18.0006 23.0156C20.7655 23.0156 23.0162 20.7661 23.0162 18C23.0162 15.2338 20.7667 12.9844 18.0006 12.9844C15.2345 12.9844 12.985 15.2338 12.985 18C12.985 20.7661 15.2345 23.0156 18.0006 23.0156ZM18.0006 14.8878C19.7175 14.8878 21.114 16.2842 21.114 18.0012C21.114 19.7182 19.7175 21.1146 18.0006 21.1146C16.2836 21.1146 14.8872 19.7182 14.8872 18.0012C14.8872 16.2842 16.2836 14.8878 18.0006 14.8878Z" fill="url(#paint2_linear_393_1422)"/>
<path d="M23.4805 13.7946C24.2251 13.7946 24.8319 13.1889 24.8319 12.4432C24.8319 11.6974 24.2263 11.0918 23.4805 11.0918C22.7348 11.0918 22.1292 11.6974 22.1292 12.4432C22.1292 13.1889 22.7348 13.7946 23.4805 13.7946Z" fill="url(#paint3_linear_393_1422)"/>
<defs>
<linearGradient id="paint0_linear_393_1422" x1="5.26663" y1="30.7334" x2="30.7334" y2="5.26663" gradientUnits="userSpaceOnUse">
<stop stop-color="#FAAD4F"/>
<stop offset="0.35" stop-color="#DD2A7B"/>
<stop offset="0.62" stop-color="#9537B0"/>
<stop offset="1" stop-color="#515BD4"/>
</linearGradient>
<linearGradient id="paint1_linear_393_1422" x1="9.03686" y1="26.9632" x2="26.9631" y2="9.03816" gradientUnits="userSpaceOnUse">
<stop stop-color="#FAAD4F"/>
<stop offset="0.35" stop-color="#DD2A7B"/>
<stop offset="0.62" stop-color="#9537B0"/>
<stop offset="1" stop-color="#515BD4"/>
</linearGradient>
<linearGradient id="paint2_linear_393_1422" x1="14.4558" y1="21.546" x2="21.5442" y2="14.4564" gradientUnits="userSpaceOnUse">
<stop stop-color="#FAAD4F"/>
<stop offset="0.35" stop-color="#DD2A7B"/>
<stop offset="0.62" stop-color="#9537B0"/>
<stop offset="1" stop-color="#515BD4"/>
</linearGradient>
<linearGradient id="paint3_linear_393_1422" x1="22.5252" y1="13.3985" x2="24.4359" y2="11.4878" gradientUnits="userSpaceOnUse">
<stop stop-color="#FAAD4F"/>
<stop offset="0.35" stop-color="#DD2A7B"/>
<stop offset="0.62" stop-color="#9537B0"/>
<stop offset="1" stop-color="#515BD4"/>
</linearGradient>
</defs>
</svg>
