<svg width="36" height="36" viewBox="0 0 36 36" fill="none" xmlns="http://www.w3.org/2000/svg">
<path d="M26.6363 14.2814V17.5655C26.0623 17.5094 25.3166 17.379 24.4916 17.0768C23.4144 16.682 22.6126 16.1422 22.0874 15.7242V22.3617L22.074 22.341C22.0825 22.4726 22.0874 22.6067 22.0874 22.7419C22.0874 26.0382 19.4053 28.7214 16.1079 28.7214C12.8105 28.7214 10.1284 26.0382 10.1284 22.7419C10.1284 19.4457 12.8105 16.7612 16.1079 16.7612C16.4308 16.7612 16.7477 16.7868 17.0572 16.8368V20.0733C16.7598 19.9673 16.4406 19.91 16.1079 19.91C14.5469 19.91 13.276 21.1797 13.276 22.7419C13.276 24.3041 14.5469 25.5739 16.1079 25.5739C17.6689 25.5739 18.9398 24.3029 18.9398 22.7419C18.9398 22.6834 18.9386 22.6249 18.935 22.5665V9.66797H22.2166C22.2287 9.9458 22.2397 10.2261 22.2519 10.5039C22.2738 11.051 22.4688 11.5762 22.8088 12.0064C23.2073 12.5121 23.7958 13.0994 24.622 13.5686C25.3958 14.0061 26.1221 14.1949 26.6363 14.2839V14.2814Z" fill="#FF004F"/>
<path d="M25.5079 11.6147V14.8975C24.9339 14.8415 24.1882 14.7111 23.3632 14.4089C22.286 14.0141 21.4842 13.4742 20.959 13.0563V19.6938L20.9456 19.6731C20.9541 19.8047 20.959 19.9387 20.959 20.074C20.959 23.3702 18.2769 26.0535 14.9795 26.0535C11.6821 26.0535 9 23.3702 9 20.074C9 16.7778 11.6821 14.0933 14.9795 14.0933C15.3024 14.0933 15.6192 14.1189 15.9287 14.1688V17.4053C15.6314 17.2993 15.3122 17.242 14.9795 17.242C13.4185 17.242 12.1475 18.5118 12.1475 20.074C12.1475 21.6362 13.4185 22.9059 14.9795 22.9059C16.5405 22.9059 17.8114 21.6349 17.8114 20.074C17.8114 20.0155 17.8102 19.957 17.8065 19.8985V7H21.0881C21.1003 7.27783 21.1113 7.5581 21.1235 7.83593C21.1454 8.38307 21.3404 8.90828 21.6804 9.33843C22.0788 9.84413 22.6674 10.4315 23.4936 10.9006C24.2674 11.3381 24.9936 11.527 25.5079 11.6159V11.6147Z" fill="#00F7EF"/>
<path d="M26.2256 13.051V16.335C25.6517 16.2789 24.9059 16.1486 24.081 15.8464C23.0038 15.4515 22.2019 14.9117 21.6767 14.4938V21.1313L21.6633 21.1106C21.6719 21.2422 21.6767 21.3762 21.6767 21.5115C21.6767 24.8077 18.9947 27.491 15.6973 27.491C12.3998 27.491 9.71777 24.8077 9.71777 21.5115C9.71777 18.2153 12.3998 15.5308 15.6973 15.5308C16.0202 15.5308 16.337 15.5563 16.6465 15.6063V18.8428C16.3492 18.7368 16.0299 18.6795 15.6973 18.6795C14.1363 18.6795 12.8653 19.9493 12.8653 21.5115C12.8653 23.0737 14.1363 24.3434 15.6973 24.3434C17.2582 24.3434 18.5292 23.0724 18.5292 21.5115C18.5292 21.453 18.528 21.3945 18.5243 21.336V8.4375H21.8059C21.8181 8.71533 21.8291 8.9956 21.8413 9.27343C21.8632 9.82057 22.0582 10.3458 22.3981 10.7759C22.7966 11.2816 23.3852 11.869 24.2114 12.3381C24.9851 12.7756 25.7114 12.9645 26.2256 13.0534V13.051Z" fill="black"/>
<path d="M18.0396 36H17.9604C8.05714 36 0 27.9429 0 18.0396V17.9604C0 8.05714 8.05714 0 17.9604 0H18.0396C27.9429 0 36 8.05714 36 17.9604V18.0396C36 27.9429 27.9429 36 18.0396 36ZM17.9604 1.21856C8.72857 1.21856 1.21856 8.72857 1.21856 17.9604V18.0396C1.21856 27.2714 8.72857 34.7814 17.9604 34.7814H18.0396C27.2714 34.7814 34.7814 27.2714 34.7814 18.0396V17.9604C34.7814 8.72857 27.2714 1.21856 18.0396 1.21856H17.9604Z" fill="black"/>
</svg>
