<svg width="36" height="36" viewBox="0 0 36 36" fill="none" xmlns="http://www.w3.org/2000/svg">
<path d="M18.0396 36H17.9604C8.05714 36 0 27.9429 0 18.0396V17.9604C0 8.05714 8.05714 0 17.9604 0H18.0396C27.9429 0 36 8.05714 36 17.9604V18.0396C36 27.9429 27.9429 36 18.0396 36ZM17.9604 1.21856C8.72857 1.21856 1.21856 8.72857 1.21856 17.9604V18.0396C1.21856 27.2714 8.72857 34.7814 17.9604 34.7814H18.0396C27.2714 34.7814 34.7814 27.2714 34.7814 18.0396V17.9604C34.7814 8.72857 27.2714 1.21856 18.0396 1.21856H17.9604Z" fill="#1877F2"/>
<path d="M22.9675 26C16.3697 26 11.0018 20.6303 11 14.0325C11.0018 12.36 12.3636 11 14.0325 11C14.2041 11 14.3739 11.0144 14.5364 11.0433C14.894 11.1029 15.2336 11.224 15.5461 11.4064C15.5912 11.4335 15.6219 11.4768 15.6291 11.5274L16.3263 15.9217C16.3353 15.9723 16.3191 16.0247 16.2848 16.0626C15.9001 16.4889 15.4088 16.7959 14.8615 16.9494L14.5978 17.0235L14.6972 17.2781C15.5966 19.5683 17.4281 21.398 19.72 22.301L19.9747 22.4022L20.0488 22.1385C20.2023 21.5912 20.5093 21.0999 20.9356 20.7152C20.9663 20.6863 21.0078 20.6719 21.0494 20.6719C21.0584 20.6719 21.0674 20.6719 21.0783 20.6737L25.4726 21.3709C25.525 21.3799 25.5683 21.4088 25.5954 21.4539C25.776 21.7664 25.8971 22.1078 25.9585 22.4654C25.9874 22.6243 26 22.7923 26 22.9675C26 24.6382 24.64 25.9982 22.9675 26Z" fill="#1877F2"/>
</svg>
