<svg width="36" height="36" viewBox="0 0 36 36" fill="none" xmlns="http://www.w3.org/2000/svg">
<path d="M18 36C8.07441 36 0 27.9256 0 18C0 8.07439 8.07441 0 18 0C27.9256 0 36 8.07439 36 18C36 27.9256 27.9256 36 18 36ZM18 1.22191C8.74891 1.22191 1.22191 8.74889 1.22191 18C1.22191 27.2511 8.74891 34.7781 18 34.7781C27.2511 34.7781 34.7781 27.2511 34.7781 18C34.7781 8.74889 27.2511 1.22191 18 1.22191Z" fill="#FF0209"/>
<path d="M28.9495 14.3967C28.8127 13.0758 28.5182 11.6157 27.4344 10.8483C26.5949 10.2532 25.4915 10.2312 24.4615 10.2325C22.284 10.2337 20.1053 10.2361 17.9279 10.2373C15.8335 10.2398 13.7392 10.241 11.6448 10.2435C10.7699 10.2447 9.91946 10.1762 9.10689 10.555C8.40918 10.8801 7.86298 11.4984 7.53429 12.1863C7.07851 13.1431 6.98321 14.2269 6.92822 15.2851C6.82681 17.212 6.8378 19.1439 6.95877 21.0696C7.04797 22.4748 7.27402 24.0279 8.3603 24.9235C9.32317 25.7165 10.6819 25.7556 11.9307 25.7569C15.8946 25.7605 19.8597 25.7642 23.8248 25.7666C24.3332 25.7679 24.8635 25.7581 25.3816 25.7019C26.4006 25.5919 27.372 25.2999 28.027 24.5447C28.688 23.7835 28.8579 22.7241 28.9581 21.7209C29.2025 19.2868 29.2 16.8296 28.9495 14.3967ZM15.6356 21.4117V14.5873L21.5448 17.9989L15.6356 21.4117Z" fill="#FF0209"/>
</svg>
